<svg width="48" height="48" viewBox="0 0 48 48" fill="none" xmlns="http://www.w3.org/2000/svg">
<g clip-path="url(#clip0_24_1057)">
<path fill-rule="evenodd" clip-rule="evenodd" d="M35 34H30.6V26.3011C30.6 24.1891 29.6683 23.0107 27.9974 23.0107C26.1791 23.0107 25.1 24.2386 25.1 26.3011V34H20.7V19.7H25.1V21.3081C25.1 21.3081 26.4805 18.8857 29.5913 18.8857C32.7032 18.8857 35 20.7847 35 24.7139V34ZM15.6862 17.413C14.2023 17.413 13 16.2009 13 14.706C13 13.2122 14.2023 12 15.6862 12C17.169 12 18.3713 13.2122 18.3713 14.706C18.3724 16.2009 17.169 17.413 15.6862 17.413ZM13 34H18.5V19.7H13V34Z" fill="black"/>
</g>
<defs>
<clipPath id="clip0_24_1057">
<rect width="22" height="22" fill="white" transform="translate(13 12)"/>
</clipPath>
</defs>
</svg>
