<?xml version="1.0" encoding="utf-8"?>
<!-- Generator: Adobe Illustrator 26.3.1, SVG Export Plug-In . SVG Version: 6.00 Build 0)  -->
<svg version="1.1" id="Layer_1" xmlns="http://www.w3.org/2000/svg" xmlns:xlink="http://www.w3.org/1999/xlink" x="0px" y="0px"
	 viewBox="0 0 135.1 63.8" style="enable-background:new 0 0 135.1 63.8;" xml:space="preserve">
<path d="M35.4,10.8h11.8V12c-1.4,0-2.7,0.3-4,0.9c-1.3,0.6-2.6,1.8-4,3.4c-0.2,0.3-0.8,1-1.9,2.3c-1.1,1.3-2.4,2.9-4,4.8
	c-1.6,1.9-3.4,4.1-5.3,6.5c-2,2.4-4,4.9-6,7.4c1.8,2.2,3.6,4.4,5.5,6.7c1.9,2.2,3.6,4.3,5.2,6.3c1.6,2,3,3.6,4.2,5.1
	c1.2,1.4,2,2.4,2.5,3.1c1.3,1.6,2.6,2.8,3.9,3.4c1.2,0.6,2.6,0.9,4,0.9v1.1h-18v-1.1c1.4,0,2.2-0.3,2.5-0.9c0.3-0.6-0.3-1.7-1.5-3.4
	c-0.4-0.5-1-1.3-1.9-2.3l-3-3.7c-1.1-1.4-2.4-2.9-3.7-4.5c-1.3-1.6-2.7-3.3-4.1-5c-1.1,1.3-2.1,2.5-3.1,3.7c-1,1.2-1.9,2.3-2.8,3.4
	v8.3c0.1,1.6,0.5,2.8,1.2,3.4c0.8,0.6,1.8,0.9,3.2,0.9v1.1H0v-1.1c1.4,0,2.5-0.3,3.2-0.9c0.8-0.6,1.1-1.7,1.1-3.4V16.3
	c0-1.6-0.4-2.8-1.1-3.4C2.5,12.3,1.4,12,0,12v-1.2h16V12c-1.4,0-2.5,0.3-3.2,0.9c-0.8,0.6-1.2,1.7-1.2,3.4v30.2c1.6-2,3.3-4,5.1-6.2
	c1.8-2.2,3.6-4.3,5.3-6.5c1.8-2.1,3.5-4.2,5.2-6.3c1.7-2,3.1-3.8,4.4-5.4c1.3-1.6,2.4-2.9,3.2-3.9c0.8-1,1.3-1.6,1.5-1.9
	c1.3-1.6,1.9-2.8,1.7-3.4c-0.2-0.6-1.1-0.9-2.5-0.9V10.8L35.4,10.8z"/>
<path d="M61.3,61.8c0.7,0.6,1.8,0.9,3.2,0.9v1.1H49.7v-1.1c1.4,0,2.5-0.3,3.2-0.9c0.8-0.6,1.1-1.7,1.1-3.4V6.5
	C54.1,6,53.9,5.5,53.7,5c-0.3-0.4-0.7-0.7-1.2-1.1c-0.5-0.3-1.3-0.5-2.3-0.5l-0.3-1.1l9-2.3h1.2v58.4C60.1,60.1,60.5,61.2,61.3,61.8
	L61.3,61.8z"/>
<path d="M96.4,59.4c-1.5,0.9-3,1.5-4.6,1.8c-1.6,0.4-3.2,0.6-4.7,0.6c-2,0-4-0.4-6-1.3c-1.9-0.9-3.7-2.1-5.2-3.7
	c-1.5-1.6-2.7-3.5-3.6-5.6c-0.9-2.2-1.3-4.6-1.3-7.2c0-0.3,0-0.6,0-0.8c0-0.2,0-0.5,0-0.8h32c0-1.6-0.3-3.5-1-5.6
	c-0.7-2.1-1.8-4.1-3.3-5.9c-1.5-1.9-3.5-3.4-6-4.7c-2.5-1.3-5.5-1.9-9.2-1.9c-2.7,0-5.3,0.5-7.6,1.6c-2.3,1-4.3,2.5-6.1,4.3
	c-1.7,1.8-3.1,3.9-4,6.3c-1,2.4-1.4,5-1.4,7.7s0.6,5.4,1.7,7.8c1.1,2.4,2.6,4.5,4.5,6.3c1.9,1.8,4.1,3.3,6.5,4.3
	c2.5,1,5.1,1.6,7.8,1.6c2.1,0,4.1-0.3,6.1-0.9c1.9-0.6,3.7-1.4,5.4-2.5c1-0.7,2-1.5,2.9-2.4l-0.9-0.4C97.9,58.5,97.2,59,96.4,59.4
	L96.4,59.4z M73,34.8c0.8-1.9,1.8-3.5,3-4.9c1.2-1.4,2.5-2.5,4-3.3c1.5-0.8,3-1.2,4.7-1.2c2.2,0,4,0.6,5.5,1.7
	c1.5,1.1,2.8,2.5,3.8,4.1c1,1.6,1.8,3.3,2.4,5.1c0.6,1.8,1,3.3,1.1,4.6H71.4C71.7,38.7,72.2,36.7,73,34.8L73,34.8z"/>
<path d="M109,47.3L109,47.3C93.7,67.9,81,60.4,81,60.4l2.7,2.6l5.6-0.2c-0.9,0.6-0.8,1,3.3-0.1C101,60.6,112,44.2,112,44.2l2.6-6.3
	C112.8,41.6,110.9,44.7,109,47.3z"/>
<path d="M134.9,29.5c-0.6-0.9-1.3-1.6-2.2-2.2c-0.9-0.6-1.9-1.1-3.1-1.5c-1.1-0.4-2.2-0.6-3.3-0.6c-1.8,0-3.3,0.4-4.6,1.2
	c-1.3,0.8-2.4,1.9-3.3,3.2c-0.9,1.3-1.7,2.7-2.3,4.2c-0.6,1.5-1.1,2.9-1.5,4.2V24.6h-1.2l-9,2.3l0.3,1.1c1,0,1.8,0.2,2.3,0.5
	c0.5,0.3,0.9,0.7,1.2,1c0.3,0.4,0.4,0.9,0.5,1.5v17.7c2.1-2.5,3.6-4.4,4.5-5.7c0.5-0.8,1.4-2.2,1.9-3.9c0,0,0,0,0,0
	c0.2-0.8,0.5-1.6,0.8-2.5c0.5-1.5,1.2-2.9,2-4.2c0.8-1.2,1.7-2.3,2.8-3.1c1.1-0.8,2.4-1.2,3.9-1.2s2.8,0.4,4,1.2
	c1.2,0.8,1.9,1.7,2.1,2.8c0.2,0.9,0.6,1.6,1.1,2.1c0.5,0.4,1.1,0.7,1.7,0.7c0.6,0,1.1-0.2,1.6-0.7c0.5-0.5,0.7-1.1,0.7-1.9
	C135.8,31.3,135.5,30.4,134.9,29.5L134.9,29.5z"/>
<path d="M115.8,61.8c-0.7-0.6-1.1-1.7-1.2-3.4V43.4l-5.9,8.2v6.9c0,1.6-0.4,2.8-1.1,3.4c-0.8,0.6-1.8,0.9-3.2,0.9v1.1H119v-1.1
	C117.6,62.7,116.5,62.4,115.8,61.8L115.8,61.8z"/>
</svg>
