<?xml version="1.0" encoding="utf-8"?>
<!-- Generator: Adobe Illustrator 26.3.1, SVG Export Plug-In . SVG Version: 6.00 Build 0)  -->
<svg version="1.1" id="Layer_1" xmlns="http://www.w3.org/2000/svg" xmlns:xlink="http://www.w3.org/1999/xlink" x="0px" y="0px"
	 viewBox="0 0 86.4 56" style="enable-background:new 0 0 86.4 56;" xml:space="preserve">
<style type="text/css">
	.st0{fill:#AE1B1F;}
	.st1{fill:#7A0708;}
</style>
<polygon class="st0" points="63,0 58.3,8.8 72.1,38.7 66,38.7 54.9,15 43.2,36.7 31.5,15 20.4,38.7 14.2,38.7 28.1,8.8 23.4,0 
	0,48.3 25,48.4 32.5,34.2 43.2,56 43.2,56 43.2,56 43.2,56 43.2,56 53.8,34.2 61.3,48.4 86.4,48.3 "/>
<path class="st1" d="M59,23.7l-5.2,10.5l5.1,9.6L59,23.7z"/>
<path class="st1" d="M37.1,25.5l-4.6,8.7l4.6,9.5L37.1,25.5z"/>
<path class="st1" d="M14.3,48.4v-9.7l-4.7,9.7L14.3,48.4z"/>
</svg>
