<svg width="80" height="70" viewBox="0 0 80 70" fill="none" xmlns="http://www.w3.org/2000/svg">
<path d="M62.8049 31.183C67.3009 31.183 70.9457 27.5249 70.9457 23.0124C70.9457 18.4999 67.3009 14.8418 62.8049 14.8418C58.3088 14.8418 54.6641 18.4999 54.6641 23.0124C54.6641 27.5249 58.3088 31.183 62.8049 31.183Z" fill="#E56538"/>
<path d="M71.0575 37.2586C68.721 35.9669 66.0168 35.2402 63.2317 35.1616H62.4153C59.6046 35.2393 56.9805 35.9412 54.6229 37.2409C54.6229 37.2409 54.6229 39.8544 54.6211 43.5839C54.6176 57.6551 65.9816 69.0643 80.0006 69.0643V52.4043C80.0006 46.1038 76.5715 40.2994 71.0575 37.2586Z" fill="#E56538"/>
<path d="M36.4008 0H22.8973C12.2837 0 3.57809 8.61827 3.57809 19.3909C3.57809 25.6049 6.31222 30.3878 10.7116 33.3809C10.7213 33.3871 10.7196 33.4012 10.709 33.4056C4.4622 36.0173 0.0856555 41.5559 0.00120362 49.0944C-0.121076 60.078 9.09034 69.0654 20.0348 69.0654H45.6061V52.4054C45.6061 46.0942 49.0528 40.2898 54.5949 37.2561C54.6037 37.2517 54.6125 37.2472 54.6213 37.2419V18.2872C54.6213 8.1874 46.4638 0 36.4008 0ZM39.7129 55.915C39.7129 55.9247 39.7068 55.9318 39.6997 55.9318H22.9871C19.8703 55.9318 17.4563 52.4274 17.7132 48.3033C17.9367 44.7062 20.3638 42.0133 23.1366 42.0133H39.6997C39.7068 42.0133 39.7129 42.0212 39.7129 42.0301V55.915ZM39.7129 27.0362C39.7129 27.0441 39.7068 27.0512 39.698 27.0512H25.6095C22.3132 27.0512 19.5157 24.4642 19.4181 21.1576C19.3662 19.4024 19.9618 17.7601 21.2039 16.6379C22.2771 15.5607 23.7075 14.8429 25.3781 14.8429H31.7877C36.1642 14.8429 39.7129 18.4038 39.7129 22.7972V27.0371V27.0362Z" fill="#084C84"/>
</svg>
