<svg width="200" height="92" viewBox="0 0 200 92" fill="none" xmlns="http://www.w3.org/2000/svg">
<path d="M193.249 11.5107C194.734 13.1758 195.822 15.3703 195.249 18.0745C191.422 36.1405 186.968 51.8953 182.484 68.3609C181.19 72.1441 177.67 73.0522 172.71 71.3739C151.104 62.0576 121.463 67.3775 91.9714 75.9023C63.5813 84.1041 36.7412 87.0815 9.32237 73.5906C6.96506 72.3038 5.03795 70.5989 4.64648 67.7928V67.8172C4.84116 70.8822 8.67099 74.277 11.127 75.6891C38.4275 89.8955 65.5217 87.509 94.2927 79.8738C124.187 71.9505 151.882 67.4915 173.433 77.3711C178.386 79.1683 184.224 78.0994 185.609 74.3216C190.499 57.8209 195.337 42.0465 199.596 23.9195C200.366 17.8024 196.278 13.7662 193.249 11.5107Z" fill="#B98757"/>
<path d="M182.486 68.3674C181.191 72.1506 177.671 73.0587 172.712 71.3804C151.105 62.062 121.464 67.3819 91.9726 75.9067C63.5825 84.1085 36.7424 87.0859 9.32355 73.595C6.86068 72.2508 4.86142 70.4489 4.60257 67.411C3.63291 52.8031 2.6606 42.5378 1.69359 27.9229C1.34827 25.5752 4.07265 22.6078 7.70781 23.9849C37.2357 35.4669 63.3189 27.3622 91.8543 16.8689C121.669 5.91147 159.168 -7.6977 189.75 8.66608C192.153 10.1513 196.257 13.3372 195.251 18.0794C191.424 36.1449 186.969 51.8997 182.486 68.3674Z" fill="url(#paint0_linear_103_1675)"/>
<path d="M26.2849 52.9672C27.5749 53.5162 28.6719 54.0249 29.5737 54.5172C30.3854 54.9413 31.1472 55.4548 31.845 56.048C32.5965 56.7108 33.1761 57.5459 33.534 58.4817C33.8979 59.5647 34.0709 60.7026 34.0453 61.8448C34.0483 62.8382 33.8424 63.8211 33.4411 64.7299C33.0303 65.6681 32.4325 66.5128 31.6843 67.2124C30.8896 67.9559 29.9548 68.5338 28.9345 68.9125C27.7711 69.3374 26.5275 69.4972 25.2945 69.3803C22.9531 69.1736 20.7301 68.2588 18.9212 66.7578C18.4618 66.3664 18.0588 65.9131 17.724 65.411C17.407 64.9493 17.2364 64.4029 17.2344 63.843C17.2349 63.536 17.3008 63.2327 17.4278 62.9533C17.5547 62.6739 17.7398 62.4247 17.9706 62.2224C18.2087 61.9969 18.4964 61.8305 18.8106 61.7364C19.1248 61.6423 19.4566 61.6233 19.7795 61.6809C20.477 61.802 21.1386 62.0779 21.7156 62.4882C22.2313 62.8289 22.7775 63.121 23.3473 63.3608C23.9643 63.6127 24.6179 63.7635 25.2829 63.8074C25.6761 63.8752 26.0792 63.8589 26.4657 63.7596C26.8521 63.6603 27.2132 63.4803 27.5251 63.2314C27.7603 63.0062 27.9453 62.7338 28.0679 62.4322C28.1905 62.1305 28.2479 61.8063 28.2364 61.4809C28.2679 60.9297 28.1346 60.3816 27.8534 59.9065C27.5953 59.5372 27.2764 59.2143 26.9103 58.9517C26.1161 58.375 25.2495 57.9052 24.3328 57.5545C23.3784 57.1866 22.465 56.7201 21.6074 56.1626C20.4806 55.4629 19.5209 54.5246 18.796 53.4138C18.0853 52.2501 17.729 50.9045 17.7707 49.5416C17.7482 48.5277 17.9549 47.5219 18.3754 46.5992C18.7653 45.7735 19.3485 45.0539 20.0755 44.5012C20.8456 43.9341 21.7214 43.5267 22.6513 43.303C23.7173 43.046 24.8175 42.9606 25.9104 43.0499C27.1156 43.1363 28.3014 43.401 29.4288 43.8355C30.4707 44.1911 31.3904 44.8349 32.0811 45.6921C32.5049 46.2693 32.7217 46.9725 32.6964 47.6882C32.7082 48.3144 32.4806 48.9216 32.0599 49.3856C31.8057 49.6394 31.4979 49.8331 31.1591 49.9524C30.8203 50.0718 30.4591 50.1137 30.102 50.0752C29.7265 50.0591 29.357 49.9759 29.0108 49.8296C28.6627 49.7097 28.3536 49.4976 28.1165 49.2159C27.8065 48.8548 27.423 48.564 26.9918 48.3628C26.5605 48.1615 26.0913 48.0545 25.6155 48.0489C25.0926 47.9986 24.5711 48.1566 24.1641 48.4886C23.942 48.6808 23.7685 48.9229 23.6578 49.1951C23.5472 49.4673 23.5026 49.7618 23.5276 50.0545C23.5013 50.6128 23.6744 51.1622 24.0162 51.6045C24.6711 52.2093 25.4433 52.6732 26.2849 52.9672Z" fill="white"/>
<path d="M58.2688 68.4466C56.7008 68.7001 55.4166 66.5571 55.4166 66.5571C55.3317 66.5528 53.9594 68.3718 52.8821 69.0285C51.7033 69.7216 50.3798 70.1319 49.0156 70.2273C47.4331 70.3984 45.8323 70.2273 44.3217 69.7255C42.9777 69.2697 41.752 68.5206 40.7332 67.5326C39.7186 66.5251 38.9266 65.316 38.4083 63.9834C37.836 62.52 37.5273 60.967 37.4965 59.396C37.3453 54.3106 37.2673 51.7709 37.1124 46.6807C37.0789 46.3275 37.1233 45.9713 37.2424 45.6371C37.3616 45.3029 37.5526 44.999 37.802 44.7467C38.3468 44.2662 39.0564 44.0153 39.7822 44.0465C40.5053 44.0062 41.2175 44.2363 41.7803 44.692C42.0489 44.931 42.2621 45.2256 42.405 45.5555C42.5479 45.8853 42.6172 46.2423 42.6078 46.6017C42.7622 51.6892 42.8375 54.2343 42.9929 59.3191C42.9547 60.9127 43.5472 62.4568 44.6416 63.6158C45.6844 64.657 47.184 65.1122 49.1377 64.9313C51.0913 64.7504 52.5399 64.0295 53.465 62.828C54.4315 61.5042 54.8964 59.8802 54.7769 58.2455C54.6225 53.1575 54.5472 50.615 54.3954 45.5275C54.368 45.1582 54.4142 44.7872 54.5314 44.436C54.6486 44.0848 54.8345 43.7603 55.0781 43.4816C55.6154 42.9227 56.3306 42.5684 57.1007 42.4795C57.7783 42.3387 58.4841 42.4722 59.0634 42.8509C59.3434 43.0582 59.5675 43.3318 59.7157 43.6471C59.8638 43.9625 59.9313 44.3097 59.9121 44.6576C60.1264 51.6871 60.3386 58.7141 60.5486 65.7386C60.5681 66.068 60.5214 66.3979 60.4112 66.7089C60.3009 67.0198 60.1294 67.3055 59.9068 67.549C59.4833 68.0315 58.9033 68.3493 58.2688 68.4466Z" fill="white"/>
<path d="M66.8381 40.6329C68.4024 40.2918 69.6845 42.3223 69.6845 42.3223C69.8033 42.3303 71.488 40.2849 72.6868 39.4622C73.9198 38.6288 75.2877 38.0151 76.7299 37.648C78.2617 37.2114 79.8661 37.0903 81.4461 37.2921C82.7712 37.4674 84.031 37.9729 85.1099 38.762C86.1555 39.5649 86.9754 40.6248 87.49 41.8386C88.0868 43.236 88.4024 44.7373 88.4188 46.2567C88.5711 51.1585 88.6448 53.6087 88.7901 58.51C88.836 59.2878 88.5914 60.0549 88.1037 60.6626C87.6059 61.286 86.9177 61.7293 86.1443 61.925C85.8231 62.0427 85.4809 62.0914 85.1397 62.0679C84.7985 62.0444 84.4661 61.9492 84.1641 61.7887C83.8882 61.5973 83.667 61.3373 83.5222 61.0343C83.3774 60.7314 83.314 60.3959 83.3382 60.061C83.1918 55.1602 83.1175 52.7069 82.9701 47.8077C82.9561 46.9813 82.7832 46.1653 82.4608 45.4042C82.1802 44.7354 81.7406 44.1451 81.1803 43.6845C80.6091 43.2262 79.9259 42.9287 79.2012 42.8225C78.3327 42.6939 77.4467 42.7514 76.6021 42.9912C75.6677 43.2289 74.7824 43.6293 73.9869 44.1741C73.2215 44.6881 72.5414 45.3188 71.9712 46.0434C71.4143 46.7431 70.9886 47.5378 70.7146 48.3891C70.433 49.2516 70.3039 50.1567 70.3332 51.0636C70.4818 55.9649 70.5544 58.4151 70.7045 63.3169C70.7491 64.0832 70.5056 64.8385 70.0218 65.4345C69.4985 66.0334 68.7882 66.438 68.0061 66.5829C67.6775 66.6749 67.3334 66.6977 66.9956 66.6497C66.6577 66.6018 66.3335 66.4842 66.0435 66.3044C65.764 66.1041 65.5397 65.8364 65.3913 65.5262C65.2429 65.216 65.1753 64.8734 65.1948 64.5301C64.9805 57.5009 64.7683 50.4721 64.5582 43.4437C64.5228 42.7713 64.7546 42.1121 65.2033 41.6099C65.6256 41.1129 66.2003 40.7694 66.8381 40.6329Z" fill="white"/>
<path d="M113.656 20.5612C113.607 19.8134 113.844 19.0748 114.32 18.4962C114.834 17.9036 115.544 17.5162 116.32 17.4051C116.665 17.3184 117.024 17.3057 117.374 17.3679C117.724 17.4301 118.057 17.5657 118.351 17.7658C118.622 17.9781 118.84 18.2508 118.986 18.5621C119.133 18.8734 119.205 19.2146 119.196 19.5587C119.605 30.0163 120.016 40.4716 120.431 50.9246C120.475 51.5851 120.269 52.2379 119.854 52.7536C119.449 53.257 118.872 53.5919 118.234 53.693C117.532 53.8505 116.796 53.7342 116.176 53.3678C115.604 53.0092 115.063 51.2418 115.063 51.2418C115.009 51.2306 114.173 52.3308 113.585 52.8798C112.978 53.4471 112.323 53.9603 111.626 54.4133C110.9 54.8906 110.137 55.3106 109.345 55.6694C108.565 56.0308 107.746 56.3048 106.905 56.4863C105.157 56.8639 103.35 56.8834 101.593 56.5436C99.9449 56.2344 98.381 55.578 97.0056 54.6181C95.6062 53.6305 94.4568 52.3298 93.649 50.8194C92.8413 49.3091 92.3975 47.6309 92.353 45.9187C92.283 44.0171 92.6104 42.1218 93.3142 40.3538C94.0221 38.5401 95.0101 36.8486 96.2423 35.3411C97.4851 33.8157 98.9573 32.4926 100.606 31.4189C102.193 30.3596 103.964 29.6072 105.828 29.2006C107.404 28.8232 109.043 28.7968 110.63 29.1232C111.916 29.3985 113.103 30.0167 114.066 30.9124C113.904 26.7701 113.821 24.7024 113.656 20.5612ZM106.039 34.5359C104.852 34.7824 103.722 35.2461 102.704 35.9033C101.703 36.543 100.816 37.3441 100.078 38.2739C99.349 39.1942 98.7739 40.2264 98.3746 41.3304C97.9748 42.4158 97.7926 43.5694 97.8384 44.7252C97.8637 45.7992 98.1337 46.8532 98.6277 47.8071C99.0908 48.6846 99.7472 49.4453 100.547 50.0318C101.371 50.6219 102.314 51.0248 103.309 51.2126C104.43 51.4235 105.582 51.4012 106.693 51.1474C107.831 50.9091 108.914 50.4625 109.89 49.8303C111.809 48.6038 113.253 46.7594 113.983 44.6016C114.352 43.5255 114.518 42.3898 114.471 41.2529C114.446 40.1701 114.193 39.1047 113.728 38.1265C113.306 37.2242 112.692 36.4258 111.927 35.7877C111.158 35.16 110.251 34.7253 109.28 34.5199C108.211 34.2912 107.105 34.2966 106.039 34.5359Z" fill="white"/>
<path d="M151.849 44.6589C151.878 45.0212 151.832 45.3856 151.714 45.7291C151.595 46.0727 151.406 46.3878 151.159 46.6545C150.614 47.1776 149.887 47.4698 149.131 47.4703C148.425 47.5369 147.72 47.3279 147.163 46.8868C146.887 46.6544 146.666 46.3623 146.519 46.0325C146.371 45.7026 146.3 45.3436 146.311 44.9825C146.306 44.9294 146.306 44.8987 146.302 44.844C145.828 45.3504 145.319 45.8221 144.778 46.2556C144.175 46.7485 143.525 47.1828 142.839 47.5525C142.113 47.9481 141.358 48.2873 140.581 48.5673C139.805 48.8497 139.004 49.0544 138.188 49.1783C136.297 49.4867 134.366 49.4462 132.49 49.059C130.849 48.7243 129.299 48.0421 127.943 47.0581C126.653 46.0948 125.609 44.8408 124.895 43.398C124.119 41.8261 123.703 40.101 123.678 38.3482C123.623 36.4616 123.929 34.5818 124.58 32.8103C125.226 31.0053 126.177 29.3245 127.391 27.8411C128.632 26.3274 130.12 25.0345 131.791 24.0171C133.494 22.9703 135.391 22.2807 137.368 21.9902C138.963 21.7165 140.599 21.8058 142.155 22.2512C143.553 22.6841 145.69 24.2669 145.69 24.2669C145.739 24.2452 145.909 22.8045 146.424 22.2878C146.936 21.7717 147.624 21.4684 148.349 21.4391C148.718 21.3952 149.091 21.4269 149.447 21.5325C149.803 21.638 150.133 21.8151 150.418 22.0528C150.678 22.2938 150.885 22.5869 151.024 22.913C151.163 23.2391 151.232 23.5909 151.227 23.9455C151.431 30.8498 151.639 37.7543 151.849 44.6589ZM137.527 27.3101C136.339 27.48 135.196 27.8824 134.164 28.4941C133.153 29.0929 132.254 29.8615 131.505 30.766C130.762 31.6656 130.174 32.6826 129.764 33.7752C129.351 34.8504 129.157 35.9971 129.192 37.1483C129.206 38.2194 129.469 39.2725 129.959 40.2249C130.413 41.1121 131.063 41.884 131.86 42.482C132.682 43.0922 133.621 43.5257 134.619 43.755C135.736 44.0086 136.892 44.0455 138.023 43.8638C139.156 43.6983 140.249 43.3278 141.249 42.7705C143.182 41.7251 144.665 40.0079 145.418 37.9434C145.807 36.9 145.987 35.7904 145.948 34.6775C145.923 33.5789 145.678 32.4965 145.226 31.4948C144.804 30.5524 144.197 29.7045 143.441 29.0017C142.68 28.3116 141.774 27.8025 140.788 27.5127C139.73 27.2064 138.617 27.1368 137.529 27.309L137.527 27.3101Z" fill="white"/>
<path d="M173.318 24.2058C173.428 23.9336 173.594 23.6874 173.805 23.4831C174.016 23.2787 174.268 23.1207 174.543 23.0192C175.154 22.8074 175.81 22.7582 176.446 22.8765C177.355 23.0154 178.203 23.4183 178.886 24.035C179.203 24.295 179.462 24.6192 179.644 24.9864C179.827 25.3536 179.93 25.7554 179.947 26.1653C179.97 26.5307 179.903 26.8962 179.751 27.2293C174.941 37.2336 170.234 47.2647 165.628 57.3227C165.373 57.9054 164.917 58.3771 164.344 58.652C163.769 58.917 163.137 59.0374 162.505 59.0026C161.651 58.97 160.826 58.6866 160.132 58.1879C159.805 57.9823 159.532 57.7001 159.338 57.3657C159.144 57.0312 159.034 56.6545 159.018 56.2682C159.013 55.934 159.083 55.6029 159.224 55.2996C161.119 51.1764 162.068 49.1363 163.962 45.0847C160.737 38.4114 157.484 31.7472 154.202 25.0922C154.116 24.88 154.043 24.6848 153.982 24.5161C153.914 24.3304 153.878 24.1345 153.876 23.9369C153.858 23.5561 153.937 23.1771 154.107 22.8359C154.277 22.4948 154.532 22.2028 154.847 21.988C155.545 21.4798 156.394 21.2222 157.256 21.257C157.927 21.2591 158.588 21.4228 159.183 21.7344C159.761 22.0417 160.22 22.5345 160.485 23.1337C162.806 28.08 165.109 33.0308 167.393 37.9863C169.762 32.407 170.944 29.6519 173.318 24.2058Z" fill="white"/>
<defs>
<linearGradient id="paint0_linear_103_1675" x1="2.24529" y1="24.2351" x2="112.836" y2="133.53" gradientUnits="userSpaceOnUse">
<stop offset="0.006" stop-color="#640000"/>
<stop offset="0.01" stop-color="#650000"/>
<stop offset="0.179" stop-color="#9C000A"/>
<stop offset="0.325" stop-color="#C30012"/>
<stop offset="0.44" stop-color="#DC0017"/>
<stop offset="0.511" stop-color="#E50019"/>
<stop offset="0.58" stop-color="#DE0017"/>
<stop offset="0.677" stop-color="#CC0014"/>
<stop offset="0.79" stop-color="#AE000E"/>
<stop offset="0.915" stop-color="#840006"/>
<stop offset="1" stop-color="#640000"/>
</linearGradient>
</defs>
</svg>
